<?xml version="1.0" encoding="UTF-8"?>
<!DOCTYPE svg PUBLIC "-//W3C//DTD SVG 1.1//EN" "http://www.w3.org/Graphics/SVG/1.1/DTD/svg11.dtd">
<!-- Creator: CorelDRAW 2021 (64-Bit) -->
<svg xmlns="http://www.w3.org/2000/svg" xml:space="preserve" width="128px" height="31px" version="1.1" style="shape-rendering:geometricPrecision; text-rendering:geometricPrecision; image-rendering:optimizeQuality; fill-rule:evenodd; clip-rule:evenodd"
viewBox="0 0 1887.44 448.61"
 xmlns:xlink="http://www.w3.org/1999/xlink"
 xmlns:xodm="http://www.corel.com/coreldraw/odm/2003">
 <defs>
  <style type="text/css">
   <![CDATA[
    .fil2 {fill:#051340}
    .fil3 {fill:white}
    .fil0 {fill:black;fill-rule:nonzero}
    .fil1 {fill:url(#id0)}
   ]]>
  </style>
  <radialGradient id="id0" gradientUnits="objectBoundingBox" cx="37.9978%" cy="32.9978%" r="40%" fx="37.9978%" fy="32.9978%">
   <stop offset="0" style="stop-opacity:1; stop-color:#44DB55"/>
   <stop offset="1" style="stop-opacity:1; stop-color:#009933"/>
  </radialGradient>
 </defs>
 <g id="Layer_x0020_1">
  <metadata id="CorelCorpID_0Corel-Layer"/>
  <g id="_2847673878048">
   <path class="fil0" d="M134.21 439.27c-29.9,0 -54.8,-5 -74.71,-15.02 -19.91,-9.89 -34.8,-24.89 -44.69,-44.8 -9.91,-19.89 -14.81,-44.9 -14.81,-75l0 -51.14c0,-29.7 5,-54.51 14.91,-74.21 10,-19.68 24.89,-34.49 44.7,-44.38 19.89,-9.91 44.7,-14.81 74.6,-14.81 16.95,0 32.46,1.84 46.33,5.52 13.99,3.66 26.44,9.18 37.46,16.42 10.92,7.36 20.52,16.54 28.68,27.67l0 0 -32.04 28.47 0 0c-10.52,-12.76 -22.45,-22.34 -35.73,-28.57 -13.26,-6.34 -27.86,-9.39 -43.78,-9.39 -30.93,0 -54,7.65 -69.2,23.17 -15.31,15.4 -22.86,38.78 -22.86,70.11l0 51.14c0,31.62 7.65,55.4 22.96,71.13 15.42,15.71 38.38,23.57 69.1,23.57 16.95,0 32.36,-2.96 46.23,-8.97 13.78,-5.92 26.33,-15.02 37.46,-27.15l0 0 27.86 27.44 0 0c-8.16,11.03 -17.76,20.12 -28.68,27.26 -11.02,7.15 -23.47,12.55 -37.46,16.12 -13.87,3.58 -29.38,5.42 -46.33,5.42z"/>
   <path class="fil0" d="M647.69 124.41l43.07 0 0 310.36 -43.07 0 0 -310.36zm206.25 122.27c0,-27.46 -7.24,-48.8 -21.63,-64 -14.49,-15.1 -34.8,-22.65 -61.13,-22.65 -25.52,0 -45.33,6.73 -59.4,20.1 -14.08,13.47 -21.02,32.56 -21.02,57.26l-6.34 -59.81c11.02,-20.31 25.52,-35 43.69,-44.09 18.16,-9.08 39.2,-13.58 63.06,-13.58 33.7,0 59.72,11.02 78.19,33.07 18.46,22.04 27.66,53.18 27.66,93.39l0 188.4 -43.08 0 0 -188.09z"/>
   <path class="fil0" d="M998.78 0l43.06 0 0 43.07 -43.06 0 0 -43.07zm0 124.41l43.06 0 0 310.36 -43.06 0 0 -310.36z"/>
   <path class="fil0" d="M1224.23 436.3c-25.1,0 -43.57,-6.94 -55.22,-20.81 -11.63,-13.89 -17.44,-34.3 -17.44,-61.45l0 -319.97 43.06 0 0 320.58c0,13.38 2.97,23.59 8.99,30.83 5.92,7.15 14.79,10.71 26.53,10.71l29.3 0 0 40.11 -35.22 0zm-104.71 -311.89l139.93 0 0 37.04 -139.93 0 0 -37.04z"/>
   <path class="fil0" d="M1462.24 439.27c-26.94,0 -49.9,-5.31 -69.08,-15.83 -19.1,-10.61 -33.78,-26.02 -43.8,-46.23 -10.1,-20.2 -15.1,-44.61 -15.1,-73.08l0 -50.51c0,-28.17 5,-52.26 15.1,-72.26 10.02,-20.01 24.7,-35.32 43.8,-45.72 19.18,-10.52 42.14,-15.73 69.08,-15.73 26.86,0 49.91,5.21 69.11,15.73 19.07,10.4 33.67,25.71 43.78,45.72 9.99,20 15.1,44.09 15.1,72.26l0 51.43c0,28.28 -5.11,52.46 -15.1,72.48 -10.11,19.99 -24.71,35.3 -43.78,45.91 -19.2,10.52 -42.25,15.83 -69.11,15.83zm-0.29 -40.12c27.04,0 48.06,-8.15 62.96,-24.59 14.8,-16.44 22.25,-39.7 22.25,-69.51l0 -51.43c0,-29.7 -7.45,-52.77 -22.25,-69.1 -14.9,-16.34 -35.92,-24.49 -62.96,-24.49 -26.96,0 -47.77,8.15 -62.47,24.49 -14.79,16.33 -22.15,39.4 -22.15,69.1l0 51.43c0,29.81 7.36,53.07 22.15,69.51 14.7,16.44 35.51,24.59 62.47,24.59z"/>
   <path class="fil0" d="M1677 124.41l43.07 0 0 310.36 -43.07 0 0 -310.36zm182.68 55.61c-6.42,-6.63 -14.39,-11.52 -24.08,-14.99 -9.7,-3.37 -20.93,-5 -33.69,-5 -25.91,0 -46.02,6.84 -60.32,20.72 -14.39,13.87 -21.52,33.07 -21.52,57.56l-6.34 -59.81c11.34,-18.47 26.23,-32.86 44.72,-43.17 18.47,-10.32 38.67,-15.42 60.51,-15.42 14.18,0 27.04,2.05 38.48,6.13 11.42,4.08 21.44,10.1 30,18.07l-27.76 35.91z"/>
   <g>
    <circle class="fil1" cx="438.77" cy="279.59" r="169.02"/>
    <circle class="fil2" cx="438.77" cy="279.59" r="95.52"/>
    <ellipse class="fil3" cx="453.47" cy="213.45" rx="22.05" ry="29.39"/>
   </g>
  </g>
 </g>
</svg>
